<?xml version="1.0" encoding="UTF-8" standalone="no"?>
<!DOCTYPE svg PUBLIC "-//W3C//DTD SVG 1.1//EN"
 "http://www.w3.org/Graphics/SVG/1.1/DTD/svg11.dtd">
<!-- Generated by graphviz version 14.1.3 (20260303.0454)
 -->
<!-- Title: PlaywrightFramesShadowDomScan Pages: 1 -->
<svg width="1389pt" height="214pt"
 viewBox="0.00 0.00 1389.00 214.00" xmlns="http://www.w3.org/2000/svg" xmlns:xlink="http://www.w3.org/1999/xlink">
<g id="graph0" class="graph" transform="scale(1 1) rotate(0) translate(4 210.4)">
<title>PlaywrightFramesShadowDomScan</title>
<polygon fill="white" stroke="none" points="-4,4 -4,-210.4 1385,-210.4 1385,4 -4,4"/>
<text xml:space="preserve" text-anchor="middle" x="690.5" y="-191.6" font-family="Times,serif" font-size="12.00">Playwright page, frames, open shadow DOM, and candidate scanning</text>
<g id="clust1" class="cluster">
<title>cluster_main_frame_dom</title>
<path fill="none" stroke="#737373" d="M501.82,-92C501.82,-92 1361,-92 1361,-92 1367,-92 1373,-98 1373,-104 1373,-104 1373,-164 1373,-164 1373,-170 1367,-176 1361,-176 1361,-176 501.82,-176 501.82,-176 495.82,-176 489.82,-170 489.82,-164 489.82,-164 489.82,-104 489.82,-104 489.82,-98 495.82,-92 501.82,-92"/>
<text xml:space="preserve" text-anchor="middle" x="931.41" y="-161.2" font-family="Times,serif" font-size="12.00">main frame DOM</text>
</g>
<g id="clust2" class="cluster">
<title>cluster_iframe_reviews_dom</title>
<path fill="none" stroke="#737373" d="M501.82,-8C501.82,-8 929.44,-8 929.44,-8 935.44,-8 941.44,-14 941.44,-20 941.44,-20 941.44,-70 941.44,-70 941.44,-76 935.44,-82 929.44,-82 929.44,-82 501.82,-82 501.82,-82 495.82,-82 489.82,-76 489.82,-70 489.82,-70 489.82,-20 489.82,-20 489.82,-14 495.82,-8 501.82,-8"/>
<text xml:space="preserve" text-anchor="middle" x="715.63" y="-67.2" font-family="Times,serif" font-size="12.00">child frame DOM</text>
</g>
<!-- page -->
<g id="node1" class="node">
<title>page</title>
<path fill="#eef5ff" stroke="black" d="M76.26,-97C76.26,-97 12,-97 12,-97 6,-97 0,-91 0,-85 0,-85 0,-73 0,-73 0,-67 6,-61 12,-61 12,-61 76.26,-61 76.26,-61 82.26,-61 88.26,-67 88.26,-73 88.26,-73 88.26,-85 88.26,-85 88.26,-91 82.26,-97 76.26,-97"/>
<text xml:space="preserve" text-anchor="middle" x="44.13" y="-82" font-family="Helvetica,sans-Serif" font-size="10.00">Playwright Page</text>
<text xml:space="preserve" text-anchor="middle" x="44.13" y="-70" font-family="Helvetica,sans-Serif" font-size="10.00">(tab)</text>
</g>
<!-- main_frame -->
<g id="node2" class="node">
<title>main_frame</title>
<path fill="#d9ecff" stroke="black" d="M428.69,-141C428.69,-141 348.87,-141 348.87,-141 342.87,-141 336.87,-135 336.87,-129 336.87,-129 336.87,-117 336.87,-117 336.87,-111 342.87,-105 348.87,-105 348.87,-105 428.69,-105 428.69,-105 434.69,-105 440.69,-111 440.69,-117 440.69,-117 440.69,-129 440.69,-129 440.69,-135 434.69,-141 428.69,-141"/>
<text xml:space="preserve" text-anchor="middle" x="388.78" y="-126" font-family="Helvetica,sans-Serif" font-size="10.00">mainFrame()</text>
<text xml:space="preserve" text-anchor="middle" x="388.78" y="-114" font-family="Helvetica,sans-Serif" font-size="10.00">Top&#45;level document</text>
</g>
<!-- page&#45;&gt;main_frame -->
<g id="edge1" class="edge">
<title>page&#45;&gt;main_frame</title>
<path fill="none" stroke="#8c8c8c" d="M88.51,-96.1C99.97,-99.98 112.44,-103.65 124.26,-106 192.97,-119.69 273.56,-123.09 327.35,-123.61"/>
<polygon fill="#8c8c8c" stroke="#8c8c8c" points="327.21,-126.41 335.23,-123.67 327.25,-120.81 327.21,-126.41"/>
</g>
<!-- iframe_reviews -->
<g id="node3" class="node">
<title>iframe_reviews</title>
<path fill="#d9ecff" stroke="black" d="M449.82,-52C449.82,-52 327.74,-52 327.74,-52 321.74,-52 315.74,-46 315.74,-40 315.74,-40 315.74,-28 315.74,-28 315.74,-22 321.74,-16 327.74,-16 327.74,-16 449.82,-16 449.82,-16 455.82,-16 461.82,-22 461.82,-28 461.82,-28 461.82,-40 461.82,-40 461.82,-46 455.82,-52 449.82,-52"/>
<text xml:space="preserve" text-anchor="middle" x="388.78" y="-37" font-family="Helvetica,sans-Serif" font-size="10.00">child Frame</text>
<text xml:space="preserve" text-anchor="middle" x="388.78" y="-25" font-family="Helvetica,sans-Serif" font-size="10.00">iframe / embedded document</text>
</g>
<!-- page&#45;&gt;iframe_reviews -->
<g id="edge2" class="edge">
<title>page&#45;&gt;iframe_reviews</title>
<path fill="none" stroke="#8c8c8c" d="M88.52,-61.93C99.98,-58.05 112.45,-54.38 124.26,-52 184.38,-39.91 253.59,-35.54 305.99,-34.12"/>
<polygon fill="#8c8c8c" stroke="#8c8c8c" points="305.8,-36.93 313.73,-33.93 305.67,-31.33 305.8,-36.93"/>
</g>
<!-- scan_step -->
<g id="node12" class="node">
<title>scan_step</title>
<path fill="#f2f2f2" stroke="black" d="M267.74,-97C267.74,-97 136.26,-97 136.26,-97 130.26,-97 124.26,-91 124.26,-85 124.26,-85 124.26,-73 124.26,-73 124.26,-67 130.26,-61 136.26,-61 136.26,-61 267.74,-61 267.74,-61 273.74,-61 279.74,-67 279.74,-73 279.74,-73 279.74,-85 279.74,-85 279.74,-91 273.74,-97 267.74,-97"/>
<text xml:space="preserve" text-anchor="middle" x="202" y="-82" font-family="Helvetica,sans-Serif" font-size="10.00">extractCandidatesFromFrame()</text>
<text xml:space="preserve" text-anchor="middle" x="202" y="-70" font-family="Helvetica,sans-Serif" font-size="10.00">(frame.evaluate)</text>
</g>
<!-- page&#45;&gt;scan_step -->
<g id="edge11" class="edge">
<title>page&#45;&gt;scan_step</title>
<path fill="none" stroke="#999999" stroke-dasharray="1,5" d="M88.55,-79C96.71,-79 105.49,-79 114.44,-79"/>
<polygon fill="#999999" stroke="#999999" points="114.28,-81.8 122.28,-79 114.28,-76.2 114.28,-81.8"/>
</g>
<!-- main_document -->
<g id="node4" class="node">
<title>main_document</title>
<path fill="#ffffff" stroke="black" d="M582.42,-141C582.42,-141 509.82,-141 509.82,-141 503.82,-141 497.82,-135 497.82,-129 497.82,-129 497.82,-117 497.82,-117 497.82,-111 503.82,-105 509.82,-105 509.82,-105 582.42,-105 582.42,-105 588.42,-105 594.42,-111 594.42,-117 594.42,-117 594.42,-129 594.42,-129 594.42,-135 588.42,-141 582.42,-141"/>
<text xml:space="preserve" text-anchor="middle" x="546.12" y="-120" font-family="Helvetica,sans-Serif" font-size="10.00">documentElement</text>
</g>
<!-- main_frame&#45;&gt;main_document -->
<g id="edge9" class="edge">
<title>main_frame&#45;&gt;main_document</title>
<path fill="none" stroke="#a6a6a6" stroke-dasharray="5,2" d="M441.07,-123C459.28,-123 479.68,-123 497.56,-123"/>
</g>
<!-- iframe_document -->
<g id="node9" class="node">
<title>iframe_document</title>
<path fill="#ffffff" stroke="black" d="M582.42,-52C582.42,-52 509.82,-52 509.82,-52 503.82,-52 497.82,-46 497.82,-40 497.82,-40 497.82,-28 497.82,-28 497.82,-22 503.82,-16 509.82,-16 509.82,-16 582.42,-16 582.42,-16 588.42,-16 594.42,-22 594.42,-28 594.42,-28 594.42,-40 594.42,-40 594.42,-46 588.42,-52 582.42,-52"/>
<text xml:space="preserve" text-anchor="middle" x="546.12" y="-31" font-family="Helvetica,sans-Serif" font-size="10.00">documentElement</text>
</g>
<!-- iframe_reviews&#45;&gt;iframe_document -->
<g id="edge10" class="edge">
<title>iframe_reviews&#45;&gt;iframe_document</title>
<path fill="none" stroke="#a6a6a6" stroke-dasharray="5,2" d="M461.99,-34C474.03,-34 486.25,-34 497.48,-34"/>
</g>
<!-- shadow_host -->
<g id="node5" class="node">
<title>shadow_host</title>
<path fill="#fff3cd" stroke="black" d="M728.92,-141C728.92,-141 642.42,-141 642.42,-141 636.42,-141 630.42,-135 630.42,-129 630.42,-129 630.42,-117 630.42,-117 630.42,-111 636.42,-105 642.42,-105 642.42,-105 728.92,-105 728.92,-105 734.92,-105 740.92,-111 740.92,-117 740.92,-117 740.92,-129 740.92,-129 740.92,-135 734.92,-141 728.92,-141"/>
<text xml:space="preserve" text-anchor="middle" x="685.67" y="-120" font-family="Helvetica,sans-Serif" font-size="10.00">shadow host element</text>
</g>
<!-- main_document&#45;&gt;shadow_host -->
<g id="edge3" class="edge">
<title>main_document&#45;&gt;shadow_host</title>
<path fill="none" stroke="#8c8c8c" d="M594.84,-123C603.16,-123 611.93,-123 620.61,-123"/>
<polygon fill="#8c8c8c" stroke="#8c8c8c" points="620.44,-125.8 628.44,-123 620.44,-120.2 620.44,-125.8"/>
</g>
<!-- open_shadow_root -->
<g id="node6" class="node">
<title>open_shadow_root</title>
<ellipse fill="#fff8d6" stroke="black" cx="885.71" cy="-123" rx="108.79" ry="22.63"/>
<text xml:space="preserve" text-anchor="middle" x="885.71" y="-126" font-family="Helvetica,sans-Serif" font-size="10.00">open ShadowRoot</text>
<text xml:space="preserve" text-anchor="middle" x="885.71" y="-114" font-family="Helvetica,sans-Serif" font-size="10.00">visible as element.shadowRoot</text>
</g>
<!-- shadow_host&#45;&gt;open_shadow_root -->
<g id="edge4" class="edge">
<title>shadow_host&#45;&gt;open_shadow_root</title>
<path fill="none" stroke="#8c8c8c" d="M741.31,-123C749.55,-123 758.31,-123 767.28,-123"/>
<polygon fill="#8c8c8c" stroke="#8c8c8c" points="767.17,-125.8 775.17,-123 767.17,-120.2 767.17,-125.8"/>
</g>
<!-- candidate_root_main -->
<g id="node7" class="node">
<title>candidate_root_main</title>
<path fill="#d5f5d1" stroke="black" d="M1139.55,-141C1139.55,-141 1042.5,-141 1042.5,-141 1036.5,-141 1030.5,-135 1030.5,-129 1030.5,-129 1030.5,-117 1030.5,-117 1030.5,-111 1036.5,-105 1042.5,-105 1042.5,-105 1139.55,-105 1139.55,-105 1145.55,-105 1151.55,-111 1151.55,-117 1151.55,-117 1151.55,-129 1151.55,-129 1151.55,-135 1145.55,-141 1139.55,-141"/>
<text xml:space="preserve" text-anchor="middle" x="1091.02" y="-126" font-family="Helvetica,sans-Serif" font-size="10.00">candidate root</text>
<text xml:space="preserve" text-anchor="middle" x="1091.02" y="-114" font-family="Helvetica,sans-Serif" font-size="10.00">(repeated list container)</text>
</g>
<!-- open_shadow_root&#45;&gt;candidate_root_main -->
<g id="edge5" class="edge">
<title>open_shadow_root&#45;&gt;candidate_root_main</title>
<path fill="none" stroke="#8c8c8c" d="M994.91,-123C1003.73,-123 1012.49,-123 1020.91,-123"/>
<polygon fill="#8c8c8c" stroke="#8c8c8c" points="1020.75,-125.8 1028.75,-123 1020.75,-120.2 1020.75,-125.8"/>
</g>
<!-- repeated_units_main -->
<g id="node8" class="node">
<title>repeated_units_main</title>
<ellipse fill="#eef9ed" stroke="black" cx="1276.28" cy="-123" rx="88.73" ry="22.63"/>
<text xml:space="preserve" text-anchor="middle" x="1276.28" y="-126" font-family="Helvetica,sans-Serif" font-size="10.00">repeated units</text>
<text xml:space="preserve" text-anchor="middle" x="1276.28" y="-114" font-family="Helvetica,sans-Serif" font-size="10.00">comment / review blocks</text>
</g>
<!-- candidate_root_main&#45;&gt;repeated_units_main -->
<g id="edge6" class="edge">
<title>candidate_root_main&#45;&gt;repeated_units_main</title>
<path fill="none" stroke="#8c8c8c" d="M1152.03,-123C1160.31,-123 1168.98,-123 1177.72,-123"/>
<polygon fill="#8c8c8c" stroke="#8c8c8c" points="1177.71,-125.8 1185.71,-123 1177.71,-120.2 1177.71,-125.8"/>
</g>
<!-- iframe_candidate_root -->
<g id="node10" class="node">
<title>iframe_candidate_root</title>
<path fill="#d5f5d1" stroke="black" d="M720.56,-52C720.56,-52 650.77,-52 650.77,-52 644.77,-52 638.77,-46 638.77,-40 638.77,-40 638.77,-28 638.77,-28 638.77,-22 644.77,-16 650.77,-16 650.77,-16 720.56,-16 720.56,-16 726.56,-16 732.56,-22 732.56,-28 732.56,-28 732.56,-40 732.56,-40 732.56,-46 726.56,-52 720.56,-52"/>
<text xml:space="preserve" text-anchor="middle" x="685.67" y="-37" font-family="Helvetica,sans-Serif" font-size="10.00">candidate root</text>
<text xml:space="preserve" text-anchor="middle" x="685.67" y="-25" font-family="Helvetica,sans-Serif" font-size="10.00">forum / review list</text>
</g>
<!-- iframe_document&#45;&gt;iframe_candidate_root -->
<g id="edge7" class="edge">
<title>iframe_document&#45;&gt;iframe_candidate_root</title>
<path fill="none" stroke="#8c8c8c" d="M594.84,-34C605.87,-34 617.71,-34 629.04,-34"/>
<polygon fill="#8c8c8c" stroke="#8c8c8c" points="628.91,-36.8 636.91,-34 628.91,-31.2 628.91,-36.8"/>
</g>
<!-- iframe_repeated_units -->
<g id="node11" class="node">
<title>iframe_repeated_units</title>
<ellipse fill="#eef9ed" stroke="black" cx="885.71" cy="-34" rx="47.73" ry="18"/>
<text xml:space="preserve" text-anchor="middle" x="885.71" y="-31" font-family="Helvetica,sans-Serif" font-size="10.00">repeated units</text>
</g>
<!-- iframe_candidate_root&#45;&gt;iframe_repeated_units -->
<g id="edge8" class="edge">
<title>iframe_candidate_root&#45;&gt;iframe_repeated_units</title>
<path fill="none" stroke="#8c8c8c" d="M732.85,-34C761.44,-34 798.34,-34 828.6,-34"/>
<polygon fill="#8c8c8c" stroke="#8c8c8c" points="828.25,-36.8 836.25,-34 828.25,-31.2 828.25,-36.8"/>
</g>
<!-- scan_step&#45;&gt;main_frame -->
<g id="edge12" class="edge">
<title>scan_step&#45;&gt;main_frame</title>
<path fill="none" stroke="#999999" stroke-dasharray="1,5" d="M280.03,-97.34C295.77,-101.09 312.13,-104.99 327.2,-108.57"/>
<polygon fill="#999999" stroke="#999999" points="326.5,-111.29 334.93,-110.41 327.79,-105.84 326.5,-111.29"/>
</g>
<!-- scan_step&#45;&gt;iframe_reviews -->
<g id="edge13" class="edge">
<title>scan_step&#45;&gt;iframe_reviews</title>
<path fill="none" stroke="#999999" stroke-dasharray="1,5" d="M278.96,-60.5C287.99,-58.3 297.24,-56.05 306.35,-53.83"/>
<polygon fill="#999999" stroke="#999999" points="306.81,-56.6 313.92,-51.99 305.49,-51.16 306.81,-56.6"/>
</g>
</g>
</svg>
